<svg width="71" height="70" viewBox="0 0 71 70" fill="none" xmlns="http://www.w3.org/2000/svg">
<path d="M39.7957 24.3597C38.1261 25.55 36.083 26.2502 33.8763 26.2502C28.2384 26.2502 23.668 21.6797 23.668 16.0418C23.668 10.4039 28.2384 5.8335 33.8763 5.8335C37.5308 5.8335 40.7369 7.75388 42.5403 10.6406M17.8346 58.5877H25.448C26.4406 58.5877 27.4272 58.7058 28.3895 58.942L36.4339 60.8969C38.1794 61.3221 39.9977 61.3635 41.7614 61.0209L50.6558 59.2905C53.0054 58.8328 55.1667 57.7077 56.8606 56.06L63.1535 49.9385C64.9506 48.1933 64.9506 45.3614 63.1535 43.6133C61.5355 42.0393 58.9734 41.8622 57.1429 43.1969L49.8089 48.5477C48.7585 49.3154 47.4805 49.7288 46.1661 49.7288H39.084L43.5919 49.7286C46.1327 49.7286 48.1909 47.7265 48.1909 45.2549V44.3602C48.1909 42.3079 46.755 40.5184 44.709 40.0223L37.7514 38.3302C36.6191 38.0556 35.4595 37.9168 34.2938 37.9168C31.4798 37.9168 26.386 40.2467 26.386 40.2467L17.8346 43.8227M58.668 18.9585C58.668 24.5964 54.0975 29.1668 48.4596 29.1668C42.8217 29.1668 38.2513 24.5964 38.2513 18.9585C38.2513 13.3206 42.8217 8.75016 48.4596 8.75016C54.0975 8.75016 58.668 13.3206 58.668 18.9585ZM6.16797 42.5835L6.16797 59.5002C6.16797 61.1336 6.16797 61.9504 6.48587 62.5743C6.7655 63.1231 7.21169 63.5693 7.7605 63.8489C8.3844 64.1668 9.20115 64.1668 10.8346 64.1668H13.168C14.8015 64.1668 15.6182 64.1668 16.2421 63.8489C16.7909 63.5693 17.2371 63.1231 17.5167 62.5743C17.8346 61.9504 17.8346 61.1336 17.8346 59.5002V42.5835C17.8346 40.95 17.8346 40.1333 17.5167 39.5094C17.2371 38.9606 16.7909 38.5144 16.2421 38.2347C15.6182 37.9168 14.8015 37.9168 13.168 37.9168L10.8346 37.9168C9.20115 37.9168 8.38441 37.9168 7.7605 38.2347C7.21169 38.5144 6.7655 38.9606 6.48587 39.5094C6.16797 40.1333 6.16797 40.95 6.16797 42.5835Z" stroke="black" stroke-width="4" stroke-linecap="round" stroke-linejoin="round"/>
</svg>
