<svg width="30" height="31" viewBox="0 0 30 31" fill="none" xmlns="http://www.w3.org/2000/svg">
<path d="M5 25.606H25C25.6875 25.606 26.25 24.9429 26.25 24.1325C26.25 23.3221 25.6875 22.6591 25 22.6591H5C4.3125 22.6591 3.75 23.3221 3.75 24.1325C3.75 24.9429 4.3125 25.606 5 25.606ZM5 18.2387H25C25.6875 18.2387 26.25 17.5757 26.25 16.7653C26.25 15.9549 25.6875 15.2918 25 15.2918H5C4.3125 15.2918 3.75 15.9549 3.75 16.7653C3.75 17.5757 4.3125 18.2387 5 18.2387ZM3.75 9.39801C3.75 10.2084 4.3125 10.8715 5 10.8715H25C25.6875 10.8715 26.25 10.2084 26.25 9.39801C26.25 8.58761 25.6875 7.92456 25 7.92456H5C4.3125 7.92456 3.75 8.58761 3.75 9.39801Z" fill="black"/>
</svg>
