<svg width="64" height="61" viewBox="0 0 64 61" fill="none" xmlns="http://www.w3.org/2000/svg">
<path d="M32.0006 43.5833C32.0006 51.6375 38.5298 58.1667 46.584 58.1667C54.6381 58.1667 61.1673 51.6375 61.1673 43.5833C61.1673 35.5292 54.6381 29 46.584 29C38.5298 29 32.0006 35.5292 32.0006 43.5833ZM32.0006 43.5833C32.0006 40.2997 33.0859 37.2695 34.9173 34.8319V8.58333M32.0006 43.5833C32.0006 45.9906 32.5839 48.2617 33.6169 50.2629C31.1597 52.3385 25.4844 53.7917 18.8757 53.7917C10.0161 53.7917 2.83398 51.18 2.83398 47.9583V8.58333M34.9173 8.58333C34.9173 11.805 27.7352 14.4167 18.8757 14.4167C10.0161 14.4167 2.83398 11.805 2.83398 8.58333M34.9173 8.58333C34.9173 5.36167 27.7352 2.75 18.8757 2.75C10.0161 2.75 2.83398 5.36167 2.83398 8.58333M2.83398 34.8333C2.83398 38.055 10.0161 40.6667 18.8757 40.6667C25.2602 40.6667 30.7737 39.3104 33.3558 37.3469M34.9173 21.7083C34.9173 24.93 27.7352 27.5417 18.8757 27.5417C10.0161 27.5417 2.83398 24.93 2.83398 21.7083" stroke="black" stroke-width="4" stroke-linecap="round" stroke-linejoin="round"/>
</svg>
